<svg xmlns="http://www.w3.org/2000/svg" version="1.1" xmlns:xlink="http://www.w3.org/1999/xlink" xmlns:svgjs="http://svgjs.com/svgjs" width="1920" height="1080" preserveAspectRatio="none" viewBox="0 0 1920 1080"><g mask="url(&quot;#SvgjsMask1328&quot;)" fill="none"><rect width="1920" height="1080" x="0" y="0" fill="url(#SvgjsLinearGradient1329)"></rect><path d="M1920 0L1660.08 0L1920 167.9z" fill="rgba(255, 255, 255, .1)"></path><path d="M1660.08 0L1920 167.9L1920 419.86L984.2399999999999 0z" fill="rgba(255, 255, 255, .075)"></path><path d="M984.24 0L1920 419.86L1920 582.34L725.24 0z" fill="rgba(255, 255, 255, .05)"></path><path d="M725.24 0L1920 582.34L1920 841.9100000000001L520.51 0z" fill="rgba(255, 255, 255, .025)"></path><path d="M0 1080L925.45 1080L0 772.9z" fill="rgba(0, 0, 0, .1)"></path><path d="M0 772.9L925.45 1080L1182.54 1080L0 763.98z" fill="rgba(0, 0, 0, .075)"></path><path d="M0 763.98L1182.54 1080L1339.78 1080L0 623.38z" fill="rgba(0, 0, 0, .05)"></path><path d="M0 623.38L1339.78 1080L1508.31 1080L0 208.13z" fill="rgba(0, 0, 0, .025)"></path></g><defs><mask id="SvgjsMask1328"><rect width="1920" height="1080" fill="#ffffff"></rect></mask><linearGradient x1="10.94%" y1="-19.44%" x2="89.06%" y2="119.44%" gradientUnits="userSpaceOnUse" id="SvgjsLinearGradient1329"><stop stop-color="#0e2a47" offset="0"></stop><stop stop-color="rgba(0, 112, 158, 1)" offset="1"></stop></linearGradient></defs></svg>